# AST/ASF file generated using VICON BodyLanguage
# -----------------------------------------------
:version 1.10
:name VICON
:units
  mass 1.0
  length 0.45
  angle deg
:documentation
   .ast/.asf automatically generated from VICON data using
   VICON BodyBuilder and BodyLanguage model FoxedUp or BRILLIANT.MOD
:root
   order TX TY TZ RX RY RZ
   axis XYZ
   position 0 0 0  
   orientation 0 -0 0 
:bonedata
  begin
     id 1 
     name lhipjoint
     direction 0.515797 -0.759363 0.396637 
     length 2.47888 
     axis 0 -0 0  XYZ
  end
  begin
     id 2 
     name lfemur
     direction 0.34202 -0.939693 0  
     length 6.81885  
     axis 0 -0 20  XYZ
    dof rx ry rz
    limits (-160.0 20.0)
           (-70.0 70.0)
           (-60.0 70.0)
  end
  begin
     id 3 
     name ltibia
     direction 0.342037 -0.939687 0   
     length 7.89258   
     axis 0 -0 20   XYZ
    dof rx
    limits (-10.0 170.0)
  end
  begin
     id 4 
     name lfoot
     direction 0.173497 -0.476678 0.861787   
     length 2.51543   
     axis -90 -1.13533e-015 20   XYZ
    dof rx rz
    limits (-45.0 90.0)
           (-70.0 20.0)
  end
  begin
     id 5 
     name ltoes
     direction 1.53564e-011 -4.21897e-011 1   
     length 1.21388   
     axis -90 -1.13533e-015 20   XYZ
    dof rx
    limits (-90.0 20.0)
  end
  begin
     id 6 
     name rhipjoint
     direction -0.489454 -0.772941 0.403729   
     length 2.43534  
     axis 0 -0 0  XYZ 
  end
  begin
     id 7 
     name rfemur
     direction -0.34202 -0.939693 0   
     length 7.10357   
     axis 0 -0 -20   XYZ
    dof rx ry rz
    limits (-160.0 20.0)
           (-70.0 70.0)
           (-70.0 60.0)
  end
  begin
     id 8 
     name rtibia
     direction -0.34202 -0.939693 0   
     length 9.16127   
     axis 0 -0 -20   XYZ
    dof rx
    limits (-10.0 170.0)
 end
 begin
     id 9 
     name rfoot
     direction -0.270974 -0.748671 0.605033   
     length 1.74894  
     axis -90 1.13533e-015 -20   XYZ
    dof rx rz
    limits (-45.0 90.0)
           (-20.0 70.0)
  end
  begin
     id 10 
     name rtoes
     direction -1.53557e-011 -4.21759e-011 1   
     length 0.787585   
     axis -90 1.13533e-015 -20   XYZ
    dof rx
    limits (-90.0 20.0)
  end
  begin
     id 11 
     name lowerback
     direction -0.0140249 0.999561 0.0260968   
     length 2.16963   
     axis 0 -0 0   XYZ
    dof rx ry rz
    limits (-20.0 45.0)
           (-30.0 30.0)
           (-30.0 30.0)
  end
  begin
     id 12 
     name upperback
     direction 0.00860018 0.999959 -0.002711   
     length 2.1726   
     axis 0 -0 0   XYZ
    dof rx ry rz
    limits (-20.0 45.0)
           (-30.0 30.0)
           (-30.0 30.0)
  end
  begin
     id 13 
     name thorax
     direction 0.015211 0.999782 -0.0143191   
     length 2.17061   
     axis 0 -0 0   XYZ
    dof rx ry rz
    limits (-20.0 45.0)
           (-30.0 30.0)
           (-30.0 30.0)
  end
  begin
     id 14 
     name lowerneck
     direction -0.0140143 0.999447 0.030145   
     length 2.26749   
     axis 0 -0 0   XYZ
    dof rx ry rz
    limits (-20.0 45.0)
           (-30.0 30.0)
           (-30.0 30.0)
  end
  begin
     id 15 
     name upperneck
     direction 0.118062 0.961438 -0.248392   
     length 2.22728   
     axis 0 -0 0   XYZ
    dof rx ry rz
    limits (-20.0 45.0)
           (-30.0 30.0)
           (-30.0 30.0)
  end
  begin
     id 16
     name head
     direction 0.0431885 0.9954 -0.085514  
     length 2.28786  
     axis 0 -0 0   XYZ
    dof rx ry rz
    limits (-20.0 45.0)
           (-30.0 30.0)
           (-30.0 30.0)
  end
  begin
     id 17 
     name lclavicle
     direction 0.912126 0.409548 0.0172323  
     length 4.31571  
     axis 0 -0 0   XYZ
    dof ry rz
    limits (-20.0 10.0)
           (0.0 20.0)
  end
  begin
     id 18 
     name lhumerus
     direction 1 -4.48977e-011 1.93091e-027   
     length 5.13658   
     axis 180 -30 -90   XYZ
    dof rx ry rz
    limits (-60.0 90.0)
           (-90.0 90.0)
           (-90.0 90.0)
  end
  begin
     id 19
     name lradius
     direction 1 -4.48916e-011 6.84018e-027   
     length 3.22473   
     axis 180 -30 -90   XYZ
    dof rx
    limits (-10.0 170.0)
  end
  begin
     id 20
     name lwrist
     direction 1 -4.48987e-011 7.01981e-027   
     length 1.61236   
     axis -4.37994e-015 90 90   XYZ
    dof ry
    limits (-180.0 0.0)
 end
  begin
     id 21 
     name lhand
     direction 1 -4.49037e-011 1.40335e-026   
     length 0.936406   
     axis -8.96029e-015 90 90   XYZ
    dof rx rz
    limits (-90.0 90.0)
           (-45.0 45.0)
  end
  begin
     id 22 
     name lfingers
     direction 1 -4.48886e-011 2.8104e-026   
     length 0.754955   
     axis -1.79203e-014 90 90   XYZ
    dof rx
    limits (0.0 90.0)
  end
  begin
     id 23
     name lthumb
     direction 0.707107 -6.34937e-011 0.707107   
     length 1.08397   
     axis -90 45 -4.48555e-014   XYZ
    dof rx rz
    limits (-45.0 45.0)
           (-45.0 45.0)
  end
  begin
     id 24 
     name rclavicle
     direction -0.947962 0.317997 0.0156638   
     length 4.86918  
     axis 0 -0 0   XYZ 
    dof ry rz
    limits (-10.0 20.0)
           (-20.0 0.0)
  end
  begin
     id 25 
     name rhumerus
     direction -1 -4.48951e-011 2.80534e-018  
     length 5.60911   
     axis 180 30 90   XYZ
    dof rx ry rz
    limits (-90.0 60.0)
           (-90.0 90.0)
           (-90.0 90.0)
  end
  begin
     id 26 
     name rradius
     direction -1 -4.4898e-011 2.11315e-027   
     length 3.38704   
     axis 180 30 90   XYZ
    dof rx
    limits (-10.0 170.0)
  end
  begin
     id 27 
     name rwrist
     direction -1 -4.48933e-011 7.02314e-027   
     length 1.69352   
     axis -4.37994e-015 -90 -90   XYZ
    dof ry
    limits (-180.0 0.0)
  end
  begin
     id 28
     name rhand
     direction -1 -4.48937e-011 1.40458e-026   
     length 0.755878   
     axis -8.96029e-015 -90 -90   XYZ
    dof rx rz
    limits (-90.0 90.0)
           (-45.0 45.0)
  end
  begin
     id 29
     name rfingers
     direction -1 -4.4901e-011 2.80737e-026   
     length 0.609409   
     axis -1.79203e-014 -90 -90   XYZ
    dof rx
    limits (0.0 90.0)
  end
  begin
     id 30
     name rthumb
     direction -0.707107 -6.34968e-011 0.707107   
     length 0.874992   
     axis -90 -45 4.48555e-014   XYZ
    dof rx rz
    limits (-45.0 45.0)
           (-45.0 45.0)
  end
:hierarchy
  begin
    root lhipjoint rhipjoint lowerback
    lhipjoint lfemur
    lfemur ltibia
    ltibia lfoot
    lfoot ltoes
    rhipjoint rfemur
    rfemur rtibia
    rtibia rfoot
    rfoot rtoes
    lowerback upperback
    upperback thorax
    thorax lowerneck lclavicle rclavicle
    lowerneck upperneck
    upperneck head
    lclavicle lhumerus
    lhumerus lradius
    lradius lwrist
    lwrist lhand lthumb
    lhand lfingers
    rclavicle rhumerus
    rhumerus rradius
    rradius rwrist
    rwrist rhand rthumb
    rhand rfingers
  end

#!OML:ASF C:\ViconDB\ViconDB\414\Spring2016\041811\Spring2016.ASF
:FULLY-SPECIFIED
:DEGREES
123
root 11.1901 17.8396 18.9923 -23.0043 -85.04 25.0708
lowerback 1.46403 -1.02859 -5.36216
upperback -0.0961914 -1.47473 -0.289662
thorax -0.793118 -0.717658 2.73671
lowerneck 8.1088 -12.6599 -28.8343
upperneck 14.001 -24.6344 28.25
head 10.6457 -13.1102 12.2934
rclavicle -1.207e-014 3.18055e-015
rhumerus -2.12375 -24.6495 -1.981
rradius 67.8813
rwrist 16.9061
rhand -56.0148 -22.6615
rfingers 7.12502
rthumb -28.3503 -50.5351
lclavicle -1.207e-014 3.18055e-015
lhumerus -10.7517 8.8662 2.24707
lradius 44.8814
lwrist 5.82185
lhand -45.31 36.7388
lfingers 7.12502
lthumb -18.082 65.9183
rfemur 168.82 18.9523 -181.045
rtibia 30.379
rfoot 2.40132 -44.3269
rtoes -32.1852
lfemur -14.1338 -9.7223 -12.9002
ltibia 38.671
lfoot -31.4088 9.85146
ltoes -14.0156
124
root 11.1868 17.8377 18.9876 -22.2298 -85.065 24.2476
lowerback 1.45574 -1.03753 -5.33109
upperback -0.104795 -1.48501 -0.247069
thorax -0.796045 -0.722419 2.76327
lowerneck 8.19948 -12.6612 -28.8444
upperneck 13.9646 -24.6465 28.226
head 10.6162 -13.1235 12.2867
rclavicle 1.04673e-014 1.78906e-014
rhumerus -2.15061 -24.6742 -2.03546
rradius 67.856
rwrist 16.8561
rhand -55.855 -22.4345
rfingers 7.12502
rthumb -28.1976 -50.3334
lclavicle 1.04673e-014 1.78906e-014
lhumerus -10.7111 8.85615 2.28799
lradius 44.8305
lwrist 5.81395
lhand -45.2656 36.6283
lfingers 7.12502
lthumb -18.0393 65.8117
rfemur 168.745 19.254 -180.946
rtibia 30.4031
rfoot 2.08462 -44.3812
rtoes -31.9641
lfemur -14.0763 -9.75771 -12.8061
ltibia 38.6798
lfoot -31.256 9.85205
ltoes -14.5802
125
root 11.1834 17.8374 18.9822 -21.4935 -85.1125 23.4685
lowerback 1.41275 -1.03374 -5.30791
upperback -0.0765017 -1.47524 -0.209498
thorax -0.7432 -0.719342 2.78749
lowerneck 8.14177 -12.7007 -28.8031
upperneck 14.0199 -24.6831 28.1517
head 10.6395 -13.1328 12.2345
rclavicle 1.62382e-014 3.37934e-015
rhumerus -2.30742 -24.5856 -1.97683
rradius 67.9394
rwrist 16.6578
rhand -55.8056 -22.3274
rfingers 7.12502
rthumb -28.1504 -50.2341
lclavicle 1.62382e-014 3.37934e-015
lhumerus -10.69 8.83695 2.28819
lradius 44.8604
lwrist 5.91112
lhand -45.3007 36.7451
lfingers 7.12502
lthumb -18.0729 65.9255
rfemur 168.676 19.5678 -180.839
rtibia 30.4433
rfoot 1.67199 -44.4528
rtoes -31.9186
lfemur -14.017 -9.74558 -12.7
ltibia 38.6757
lfoot -31.4197 9.88818
ltoes -14.4039
126
root 11.1794 17.8361 18.9761 -21.2679 -85.1645 23.1958
lowerback 1.36437 -1.03128 -5.31057
upperback -0.0489063 -1.46805 -0.207157
thorax -0.688139 -0.717696 2.78986
lowerneck 8.12668 -12.6881 -28.7826
upperneck 14.0288 -24.6758 28.1893
head 10.6471 -13.1288 12.2499
rclavicle -7.11898e-015 -1.31198e-014
rhumerus -2.38553 -24.5683 -2.03305
rradius 67.9174
rwrist 16.6459
rhand -55.8407 -22.5094
rfingers 7.12502
rthumb -28.184 -50.4106
lclavicle -7.11898e-015 -1.31198e-014
lhumerus -10.6339 8.78987 2.24733
lradius 44.8132
lwrist 5.90323
lhand -45.2797 36.6133
lfingers 7.12502
lthumb -18.0528 65.7955
rfemur 168.605 19.8569 -180.768
rtibia 30.4872
rfoot 1.31246 -44.4943
rtoes -31.7727
lfemur -13.997 -9.60287 -12.6424
ltibia 38.684
lfoot -31.4557 9.92613
ltoes -14.3557
127
root 11.1763 17.8339 18.9704 -20.8908 -85.2176 22.7595
lowerback 1.3382 -1.02909 -5.31352
upperback -0.0387982 -1.46282 -0.183341
thorax -0.662804 -0.715813 2.81525
lowerneck 8.16984 -12.6707 -28.7847
upperneck 14.0194 -24.6675 28.2077
head 10.6363 -13.13 12.2646
rclavicle -1.48716e-014 5.96354e-016
rhumerus -2.45235 -24.4937 -2.04063
rradius 67.9122
rwrist 16.5656
rhand -55.8108 -22.6855
rfingers 7.12502
rthumb -28.1554 -50.5913
lclavicle -1.48716e-014 5.96354e-016
lhumerus -10.6616 8.58391 2.18265
lradius 44.9033
lwrist 6.07505
lhand -45.2639 36.5823
lfingers 7.12502
lthumb -18.0376 65.7659
rfemur 168.515 20.1657 -180.682
rtibia 30.5478
rfoot 0.930967 -44.5907
rtoes -31.5061
lfemur -13.8672 -9.6672 -12.5633
ltibia 38.681
lfoot -31.3486 9.7493
ltoes -14.3922
128
root 11.1745 17.8305 18.965 -20.4279 -85.2539 22.2318
lowerback 1.32526 -1.03548 -5.29509
upperback -0.00821593 -1.46926 -0.183218
thorax -0.623938 -0.720689 2.80446
lowerneck 8.16223 -12.6359 -28.7845
upperneck 13.9767 -24.6368 28.3212
head 10.6332 -13.1174 12.3217
rclavicle 1.71576e-014 5.76476e-015
rhumerus -2.51236 -24.4961 -2.10025
rradius 67.9016
rwrist 16.6046
rhand -55.6833 -22.5129
rfingers 7.12502
rthumb -28.0336 -50.4387
lclavicle 1.71576e-014 5.76476e-015
lhumerus -10.5828 8.71523 2.16629
lradius 44.8027
lwrist 5.94787
lhand -45.2489 36.5114
lfingers 7.12502
lthumb -18.0231 65.6963
rfemur 168.44 21.027 -180.534
rtibia 30.6106
rfoot -0.264075 -44.8183
rtoes -31.4998
lfemur -13.7893 -9.60197 -12.481
ltibia 38.6837
lfoot -31.1368 9.65865
ltoes -14.6648
129
root 11.1716 17.8275 18.9583 -20.3351 -85.3476 22.0937
lowerback 1.31641 -1.01977 -5.30617
upperback -0.0091799 -1.44784 -0.173984
thorax -0.621331 -0.709969 2.8197
lowerneck 8.1368 -12.6281 -28.7414
upperneck 14.0031 -24.6216 28.306
head 10.6325 -13.1071 12.3114
rclavicle -1.97542e-015 5.96354e-016
rhumerus -2.58605 -24.424 -2.11884
rradius 67.9018
rwrist 16.5655
rhand -55.718 -22.5499
rfingers 7.12502
rthumb -28.0667 -50.4703
lclavicle -1.97542e-015 5.96354e-016
lhumerus -10.5509 8.73288 2.1326
lradius 44.7956
lwrist 5.90241
lhand -45.1863 36.6405
lfingers 7.12502
lthumb -17.9629 65.831
rfemur 168.395 21.1612 -180.445
rtibia 30.6588
rfoot -0.48002 -44.872
rtoes -31.3901
lfemur -13.8136 -9.36438 -12.422
ltibia 38.6707
lfoot -30.8894 9.81061
ltoes -15.0994
130
root 11.1689 17.8264 18.9518 -19.1792 -85.4606 20.8086
lowerback 1.35093 -1.00916 -5.24047
upperback 0.0384924 -1.43267 -0.132337
thorax -0.593456 -0.704021 2.82571
lowerneck 8.05044 -12.6531 -28.641
upperneck 14.0424 -24.614 28.2157
head 10.6276 -13.0898 12.25
rclavicle -4.52856e-015 -1.49089e-014
rhumerus -2.57175 -24.4381 -2.18779
rradius 67.8329
rwrist 16.6468
rhand -55.6805 -22.3863
rfingers 7.12502
rthumb -28.0308 -50.3127
lclavicle -4.52856e-015 -1.49089e-014
lhumerus -10.5253 8.78363 2.12546
lradius 44.7965
lwrist 5.98139
lhand -45.2265 36.5037
lfingers 7.12502
lthumb -18.0016 65.6906
rfemur 168.252 21.1484 -180.297
rtibia 30.714
rfoot -0.631613 -44.8903
rtoes -31.3911
lfemur -13.6481 -9.33365 -12.2605
ltibia 38.6505
lfoot -30.9039 9.8015
ltoes -15.0463
131
root 11.1652 17.8294 18.9463 -18.9224 -85.5288 20.4855
lowerback 1.32021 -1.00697 -5.24308
upperback 0.065948 -1.42694 -0.123054
thorax -0.548156 -0.702828 2.83564
lowerneck 7.99408 -12.6194 -28.6734
upperneck 14.0666 -24.5784 28.2817
head 10.6522 -13.0725 12.2919
rclavicle 9.38015e-015 2.74323e-014
rhumerus -2.57815 -24.4125 -2.23379
rradius 67.7911
rwrist 16.6689
rhand -55.6785 -22.3585
rfingers 7.12502
rthumb -28.029 -50.2851
lclavicle 9.38015e-015 2.74323e-014
lhumerus -10.5095 8.86336 2.07243
lradius 44.766
lwrist 5.85211
lhand -45.1029 36.7975
lfingers 7.12502
lthumb -17.8827 65.9953
rfemur 168.15 20.4349 -180.31
rtibia 30.7519
rfoot 0.251566 -44.7191
rtoes -31.2609
lfemur -13.4964 -9.33468 -12.1941
ltibia 38.6169
lfoot -30.9953 9.73733
ltoes -14.845
132
root 11.1612 17.8261 18.9413 -20.0941 -85.5777 21.6221
lowerback 1.24915 -0.993638 -5.33424
upperback 0.0987824 -1.40575 -0.159364
thorax -0.475115 -0.69479 2.84712
lowerneck 7.87485 -12.6434 -28.584
upperneck 14.1195 -24.5737 28.2198
head 10.6669 -13.055 12.2426
rclavicle 8.49183e-015 -1.07344e-014
rhumerus -2.60823 -24.4057 -2.25959
rradius 67.7711
rwrist 16.6886
rhand -55.6793 -22.4351
rfingers 7.12502
rthumb -28.0297 -50.3616
lclavicle 8.49183e-015 -1.07344e-014
lhumerus -10.4762 8.89736 2.03553
lradius 44.7887
lwrist 5.94071
lhand -45.2099 36.5618
lfingers 7.12502
lthumb -17.9856 65.7502
rfemur 168.102 20.598 -180.351
rtibia 30.8037
rfoot 0.0138367 -44.768
rtoes -31.1673
lfemur -13.4431 -9.18573 -12.2492
ltibia 38.5757
lfoot -30.9035 9.72911
ltoes -15.0152
133
root 11.1562 17.8266 18.9346 -19.683 -85.7283 21.1046
lowerback 1.26075 -0.958881 -5.28743
upperback 0.131858 -1.35849 -0.161801
thorax -0.452904 -0.672494 2.81767
lowerneck 7.84054 -12.6204 -28.5701
upperneck 14.1163 -24.5491 28.2829
head 10.6736 -13.042 12.2728
rclavicle -1.76359e-014 3.97569e-015
rhumerus -2.65677 -24.378 -2.29498
rradius 67.7643
rwrist 16.7557
rhand -55.6982 -22.4922
rfingers 7.12502
rthumb -28.0478 -50.4157
lclavicle -1.76359e-014 3.97569e-015
lhumerus -10.4145 8.92299 1.96296
lradius 44.7939
lwrist 6.04963
lhand -45.2151 36.4398
lfingers 7.12502
lthumb -17.9906 65.6277
rfemur 168.002 20.4666 -180.243
rtibia 30.8476
rfoot -0.0879391 -44.7938
rtoes -31.2598
lfemur -13.2363 -9.20207 -12.1444
ltibia 38.539
lfoot -30.9812 9.74009
ltoes -14.8802
134
root 11.1538 17.8251 18.9302 -21.1611 -85.788 22.5497
lowerback 1.21548 -0.947021 -5.4202
upperback 0.135379 -1.34178 -0.163846
thorax -0.422379 -0.664888 2.8888
lowerneck 7.81407 -12.5958 -28.6347
upperneck 14.1369 -24.5121 28.2792
head 10.6821 -13.0262 12.2902
rclavicle 1.37658e-014 1.70955e-014
rhumerus -2.5992 -24.3839 -2.29102
rradius 67.6991
rwrist 16.9104
rhand -55.689 -22.1254
rfingers 7.12502
rthumb -28.039 -50.0503
lclavicle 1.37658e-014 1.70955e-014
lhumerus -10.4585 8.95011 1.96061
lradius 44.8376
lwrist 6.08729
lhand -45.2261 36.5187
lfingers 7.12502
lthumb -18.0012 65.7056
rfemur 167.952 20.6027 -180.297
rtibia 30.9208
rfoot -0.376617 -44.8416
rtoes -31.2023
lfemur -13.1473 -9.15427 -12.2248
ltibia 38.4977
lfoot -30.9945 9.77576
ltoes -14.8482
135
root 11.1502 17.8238 18.9256 -21.4004 -85.8825 22.7086
lowerback 1.21015 -0.925692 -5.44061
upperback 0.160391 -1.3124 -0.151456
thorax -0.395527 -0.65138 2.91227
lowerneck 7.73983 -12.6253 -28.5002
upperneck 14.1649 -24.4783 28.1007
head 10.6395 -12.9935 12.1895
rclavicle 1.6965e-014 -4.57205e-015
rhumerus -2.58842 -24.3283 -2.27667
rradius 67.7163
rwrist 16.9153
rhand -55.6914 -22.347
rfingers 7.12502
rthumb -28.0413 -50.2716
lclavicle 1.6965e-014 -4.57205e-015
lhumerus -10.433 9.06121 1.97782
lradius 44.8206
lwrist 6.06248
lhand -45.2601 36.5911
lfingers 7.12502
lthumb -18.034 65.775
rfemur 167.862 20.6437 -180.259
rtibia 30.9757
rfoot -0.587451 -44.8858
rtoes -31.2299
lfemur -13.01 -9.18793 -12.2074
ltibia 38.4651
lfoot -31.0028 9.89792
ltoes -14.8739
